<svg width="120" height="36" viewBox="0 0 166 36" fill="#514848" xmlns="http://www.w3.org/2000/svg">
<path d="M16.596 18.486C17.7613 18.67 18.8193 19.1453 19.77 19.912C20.7513 20.6787 21.518 21.6293 22.07 22.764C22.6527 23.8987 22.944 25.11 22.944 26.398C22.944 28.0233 22.53 29.4953 21.702 30.814C20.874 32.102 19.6627 33.1293 18.068 33.896C16.504 34.632 14.6487 35 12.502 35H0.542V2.938H12.042C14.2193 2.938 16.0747 3.306 17.608 4.042C19.1413 4.74733 20.2913 5.71333 21.058 6.94C21.8247 8.16666 22.208 9.54666 22.208 11.08C22.208 12.9813 21.6867 14.5607 20.644 15.818C19.632 17.0447 18.2827 17.934 16.596 18.486ZM4.728 16.784H11.766C13.7287 16.784 15.2467 16.324 16.32 15.404C17.3933 14.484 17.93 13.2113 17.93 11.586C17.93 9.96067 17.3933 8.688 16.32 7.768C15.2467 6.848 13.698 6.388 11.674 6.388H4.728V16.784ZM12.134 31.55C14.2193 31.55 15.8447 31.0593 17.01 30.078C18.1753 29.0967 18.758 27.732 18.758 25.984C18.758 24.2053 18.1447 22.81 16.918 21.798C15.6913 20.7553 14.0507 20.234 11.996 20.234H4.728V31.55H12.134ZM51.1089 9.792V35H46.9229V31.274C46.1256 32.562 45.0063 33.574 43.5649 34.31C42.1543 35.0153 40.5903 35.368 38.8729 35.368C36.9103 35.368 35.1469 34.9693 33.5829 34.172C32.0189 33.344 30.7769 32.1173 29.8569 30.492C28.9676 28.8667 28.5229 26.8887 28.5229 24.558V9.792H32.6629V24.006C32.6629 26.49 33.2916 28.4067 34.5489 29.756C35.8063 31.0747 37.5236 31.734 39.7009 31.734C41.9396 31.734 43.7029 31.044 44.9909 29.664C46.2789 28.284 46.9229 26.2753 46.9229 23.638V9.792H51.1089ZM62.3628 0.96V35H58.1768V0.96H62.3628ZM92.4971 21.43C92.4971 22.2273 92.4511 23.0707 92.3591 23.96H72.2111C72.3644 26.444 73.2077 28.3913 74.7411 29.802C76.3051 31.182 78.1911 31.872 80.3991 31.872C82.2084 31.872 83.7111 31.458 84.9071 30.63C86.1337 29.7713 86.9924 28.6367 87.4831 27.226H91.9911C91.3164 29.6487 89.9671 31.6267 87.9431 33.16C85.9191 34.6627 83.4044 35.414 80.3991 35.414C78.0071 35.414 75.8604 34.8773 73.9591 33.804C72.0884 32.7307 70.6164 31.2127 69.5431 29.25C68.4697 27.2567 67.9331 24.9567 67.9331 22.35C67.9331 19.7433 68.4544 17.4587 69.4971 15.496C70.5397 13.5333 71.9964 12.0307 73.8671 10.988C75.7684 9.91467 77.9457 9.378 80.3991 9.378C82.7911 9.378 84.9071 9.89933 86.7471 10.942C88.5871 11.9847 89.9977 13.426 90.9791 15.266C91.9911 17.0753 92.4971 19.13 92.4971 21.43ZM88.1731 20.556C88.1731 18.9613 87.8204 17.5967 87.1151 16.462C86.4097 15.2967 85.4437 14.4227 84.2171 13.84C83.0211 13.2267 81.6871 12.92 80.2151 12.92C78.0991 12.92 76.2897 13.5947 74.7871 14.944C73.3151 16.2933 72.4717 18.164 72.2571 20.556H88.1731ZM111.178 35L105.198 25.616L99.4485 35H95.0785L103.22 22.488L95.0785 9.792H99.8165L105.796 19.13L111.5 9.792H115.87L107.774 22.258L115.916 35H111.178ZM122.196 5.698C121.399 5.698 120.724 5.422 120.172 4.87C119.62 4.318 119.344 3.64333 119.344 2.846C119.344 2.04867 119.62 1.374 120.172 0.821999C120.724 0.269998 121.399 -0.00600171 122.196 -0.00600171C122.963 -0.00600171 123.607 0.269998 124.128 0.821999C124.68 1.374 124.956 2.04867 124.956 2.846C124.956 3.64333 124.68 4.318 124.128 4.87C123.607 5.422 122.963 5.698 122.196 5.698ZM124.22 9.792V35H120.034V9.792H124.22ZM135.541 0.96V35H131.355V0.96H135.541ZM165.675 21.43C165.675 22.2273 165.629 23.0707 165.537 23.96H145.389C145.542 26.444 146.385 28.3913 147.919 29.802C149.483 31.182 151.369 31.872 153.577 31.872C155.386 31.872 156.889 31.458 158.085 30.63C159.311 29.7713 160.17 28.6367 160.661 27.226H165.169C164.494 29.6487 163.145 31.6267 161.121 33.16C159.097 34.6627 156.582 35.414 153.577 35.414C151.185 35.414 149.038 34.8773 147.137 33.804C145.266 32.7307 143.794 31.2127 142.721 29.25C141.647 27.2567 141.111 24.9567 141.111 22.35C141.111 19.7433 141.632 17.4587 142.675 15.496C143.717 13.5333 145.174 12.0307 147.045 10.988C148.946 9.91467 151.123 9.378 153.577 9.378C155.969 9.378 158.085 9.89933 159.925 10.942C161.765 11.9847 163.175 13.426 164.157 15.266C165.169 17.0753 165.675 19.13 165.675 21.43ZM161.351 20.556C161.351 18.9613 160.998 17.5967 160.293 16.462C159.587 15.2967 158.621 14.4227 157.395 13.84C156.199 13.2267 154.865 12.92 153.393 12.92C151.277 12.92 149.467 13.5947 147.965 14.944C146.493 16.2933 145.649 18.164 145.435 20.556H161.351Z" fill="514848"/>
</svg>
